<?xml version="1.0" encoding="UTF-8"?>
<svg version="1.1" xmlns="http://www.w3.org/2000/svg" width="687" height="194">
<path d="M0 0 C226.71 0 453.42 0 687 0 C687 64.02 687 128.04 687 194 C460.29 194 233.58 194 0 194 C0 129.98 0 65.96 0 0 Z " fill="#FDFDFD" transform="translate(0,0)"/>
<path d="M0 0 C2.5879293 2.73913416 4.13454912 5.43191298 5.73828125 8.83984375 C6.23328125 9.82984375 6.23328125 9.82984375 6.73828125 10.83984375 C7.59806664 16.7600803 6.80639972 21.04275502 3.34765625 25.9296875 C-1.88168006 32.13635123 -8.057284 36.22094944 -15.26171875 39.83984375 C-14.46507812 40.19175781 -13.6684375 40.54367188 -12.84765625 40.90625 C-5.52592217 44.31771491 0.0064064 47.37609404 3.73828125 54.83984375 C4.60207151 62.46087937 4.54143672 68.72296785 -0.30859375 74.91015625 C-14.89163805 89.31820402 -37.97551542 89.23624041 -57.13671875 89.15234375 C-58.33862854 89.15110504 -58.33862854 89.15110504 -59.56481934 89.14984131 C-105.75399504 89.0408667 -105.75399504 89.0408667 -115.26171875 79.83984375 C-114.9765625 77.94921875 -114.9765625 77.94921875 -114.26171875 75.83984375 C-104.85627374 71.0516172 -95.37336457 72.873414 -85.27758789 74.05297852 C-77.61586919 74.94196822 -69.9723137 75.54772112 -62.26171875 75.83984375 C-61.53404297 75.86852539 -60.80636719 75.89720703 -60.05664062 75.92675781 C-43.95166379 76.47187057 -24.43698577 76.56308499 -10.26171875 67.83984375 C-7.8019291 64.15015928 -7.46392404 61.12274165 -8.26171875 56.83984375 C-15.05242236 47.50262628 -28.52209734 45.27113619 -39.31298828 43.50390625 C-43.27858414 42.93505896 -47.25527976 42.49225816 -51.23876953 42.06640625 C-54.75385612 41.67273013 -58.25701123 41.1909518 -61.76171875 40.71484375 C-63.00953125 40.54726562 -64.25734375 40.3796875 -65.54296875 40.20703125 C-66.88875 40.02527344 -66.88875 40.02527344 -68.26171875 39.83984375 C-68.20951172 41.25523438 -68.20951172 41.25523438 -68.15625 42.69921875 C-67.96494144 51.77271036 -67.9123027 61.07730375 -72.6171875 69.171875 C-73.43123047 69.99751953 -73.43123047 69.99751953 -74.26171875 70.83984375 C-75.58171875 70.83984375 -76.90171875 70.83984375 -78.26171875 70.83984375 C-83.0141598 61.33496165 -81.51076929 45.65140604 -81.63671875 35.27734375 C-81.67551147 33.67439453 -81.67551147 33.67439453 -81.71508789 32.0390625 C-81.73304758 24.58637067 -80.24632098 18.65877208 -77.26171875 11.83984375 C-75.94171875 11.83984375 -74.62171875 11.83984375 -73.26171875 11.83984375 C-68.52434538 16.84792417 -68.11872048 20.89552442 -68.19921875 27.52734375 C-68.20373047 28.22923828 -68.20824219 28.93113281 -68.21289062 29.65429688 C-68.22464948 31.38284913 -68.24258421 33.1113574 -68.26171875 34.83984375 C-37.26720587 34.79645651 -37.26720587 34.79645651 -9.26171875 22.83984375 C-7.5161565 20.3279371 -6.39548235 18.3615218 -5.63671875 15.40234375 C-6.68999917 11.08389402 -9.56239237 9.09916389 -13.26171875 6.83984375 C-24.62423085 1.98774399 -35.85145813 1.5997786 -48.01171875 1.58984375 C-48.75059326 1.58916901 -49.48946777 1.58849426 -50.25073242 1.58779907 C-61.81008243 1.60456583 -72.98803338 2.11126583 -84.26171875 4.83984375 C-84.97634277 5.0114502 -85.6909668 5.18305664 -86.42724609 5.35986328 C-95.38215108 7.5940971 -103.78214837 10.658499 -112.08666992 14.69238281 C-116.76137237 16.9020878 -116.76137237 16.9020878 -119.7109375 16.53515625 C-120.22269531 16.30570313 -120.73445312 16.07625 -121.26171875 15.83984375 C-121.79366051 12.80017653 -121.70208315 10.63830667 -120.1953125 7.90625 C-109.7883502 -5.47413009 -90.06655424 -8.62174821 -74.30078125 -10.7890625 C-72.79644531 -10.97275391 -72.79644531 -10.97275391 -71.26171875 -11.16015625 C-70.38257813 -11.27230469 -69.5034375 -11.38445313 -68.59765625 -11.5 C-46.93474599 -13.77866347 -17.5604287 -15.11321265 0 0 Z " fill="#171717" transform="translate(336.26171875,40.16015625)"/>
<path d="M0 0 C3.57716491 0.57696208 6.4497307 1.26397443 8.66621399 4.22868347 C10.11052642 7.22964981 10.36469729 9.03647092 10.34057617 12.34106445 C10.34023628 13.90211662 10.34023628 13.90211662 10.33988953 15.4947052 C10.32440567 16.6063353 10.30892181 17.71796539 10.29296875 18.86328125 C10.28872391 20.01040085 10.28447906 21.15752045 10.28010559 22.33940125 C10.26333484 25.99734121 10.22568435 29.654727 10.1875 33.3125 C10.17245114 35.79491391 10.15876309 38.27733647 10.14648438 40.75976562 C10.11343649 46.84003231 10.0632524 52.91997656 10 59 C11.92716471 58.69978841 13.85432943 58.39957682 15.78149414 58.09936523 C17.48814743 57.83360184 17.48814743 57.83360184 19.22927856 57.56246948 C21.58716327 57.19501654 23.9448757 56.82645778 26.30249023 56.45727539 C29.53301236 55.95726865 32.7655843 55.47413795 36 55 C36.7619165 54.88454834 37.52383301 54.76909668 38.30883789 54.65014648 C45.68893591 53.66735428 53.13342621 53.89097502 60.5625 53.9375 C61.96679527 53.94252634 63.3710923 53.94708724 64.77539062 53.95117188 C68.18363903 53.96288407 71.5917964 53.97928628 75 54 C74.98952637 52.77482666 74.97905273 51.54965332 74.96826172 50.28735352 C74.93185023 45.7082821 74.90902303 41.12922328 74.89013672 36.55004883 C74.8801271 34.57444094 74.86651531 32.59884769 74.84912109 30.62329102 C74.82464991 27.77095918 74.81346624 24.91882453 74.8046875 22.06640625 C74.79436493 21.19415909 74.78404236 20.32191193 74.77340698 19.42323303 C74.77090085 5.484374 74.77090085 5.484374 78.57345581 1.24635315 C79.27959518 0.62940834 79.27959518 0.62940834 80 0 C83 1 83 1 84 3 C84.12126958 5.51512361 84.1862358 8.00699776 84.2109375 10.5234375 C84.23702897 12.10442222 84.2638332 13.6853953 84.29125977 15.26635742 C84.30456329 16.09976654 84.31786682 16.93317566 84.33157349 17.7918396 C84.54817042 30.67578044 85.01108084 43.38558599 86.5625 56.1875 C87.50932188 64.07522844 88.31143619 71.86231502 88.375 79.8125 C88.38861572 80.55330811 88.40223145 81.29411621 88.41625977 82.05737305 C88.36685457 87.84319564 87.18157282 92.81842718 83 97 C80.5625 97.125 80.5625 97.125 78 96 C74.5881166 89.19240326 74.63743953 83.00515664 74.8125 75.5 C74.83280273 73.83710938 74.83280273 73.83710938 74.85351562 72.140625 C74.88861119 69.42656768 74.9377773 66.71354807 75 64 C74.27296875 64.06566162 73.5459375 64.13132324 72.796875 64.19897461 C65.53394578 64.83273502 58.28488898 65.2847686 51 65.5625 C49.90510254 65.6049585 48.81020508 65.64741699 47.68212891 65.69116211 C34.79025392 66.14384417 21.89776118 66.09485794 9 66 C9.02320313 67.05058594 9.04640625 68.10117188 9.0703125 69.18359375 C9.18589374 76.76861242 9.10248032 83.64131889 7 91 C6.34 91 5.68 91 5 91 C4.34 92.98 3.68 94.96 3 97 C2.01 97 1.02 97 0 97 C-2.42257796 86.83928467 -3.14326453 77.44239232 -3 67 C-7.95 67.495 -7.95 67.495 -13 68 C-13.43699219 69.2684375 -13.43699219 69.2684375 -13.8828125 70.5625 C-19.78363384 86.89181692 -19.78363384 86.89181692 -26 90 C-28.86008872 90.22699117 -31.20362435 90.40768516 -34 90 C-37.6467348 86.83949651 -38.85118538 81.78218595 -39.24291992 77.09082031 C-39.23675659 75.59953613 -39.23675659 75.59953613 -39.23046875 74.078125 C-39.22853516 72.96953125 -39.22660156 71.8609375 -39.22460938 70.71875 C-39.21236328 69.5740625 -39.20011719 68.429375 -39.1875 67.25 C-39.18685547 66.12078125 -39.18621094 64.9915625 -39.18554688 63.828125 C-39.15082685 57.16188108 -38.81539423 50.61698515 -38 44 C-40.31 44 -42.62 44 -45 44 C-45.5625 42.0625 -45.5625 42.0625 -46 40 C-45 39 -45 39 -43.15234375 38.90234375 C-41.1015625 38.93489583 -39.05078125 38.96744792 -37 39 C-37.061875 37.906875 -37.12375 36.81375 -37.1875 35.6875 C-37 32 -37 32 -35.9375 30 C-32.83813522 28.40032785 -30.30041286 29.26657492 -27 30 C-26 31 -26 31 -25.9375 34.5625 C-25.958125 35.696875 -25.97875 36.83125 -26 38 C-24.576875 37.9690625 -24.576875 37.9690625 -23.125 37.9375 C-20 38 -20 38 -18 39 C-18.33 40.65 -18.66 42.3 -19 44 C-21.64 44 -24.28 44 -27 44 C-28.03330247 56.01214121 -28.11317227 67.94976471 -28 80 C-27.34 80 -26.68 80 -26 80 C-22.48307406 73.0716559 -19.08961676 66.12988484 -16 59 C-12.04 59.33 -8.08 59.66 -4 60 C-4.01571045 57.79086914 -4.01571045 57.79086914 -4.03173828 55.53710938 C-4.06805669 50.05048065 -4.09094358 44.56386247 -4.10986328 39.07714844 C-4.1198939 36.70668752 -4.1335216 34.3362389 -4.15087891 31.96582031 C-4.17525643 28.55009927 -4.18651279 25.13454245 -4.1953125 21.71875 C-4.20563507 20.66635132 -4.21595764 19.61395264 -4.22659302 18.52966309 C-4.22747818 12.66752318 -3.83298948 7.58824523 -2 2 C-1.34 1.34 -0.68 0.68 0 0 Z " fill="#181818" transform="translate(454,31)"/>
<path d="M0 0 C2.88124312 0.59102423 3.68657775 1.17055665 5.4375 3.5 C5.58203125 5.71484375 5.58203125 5.71484375 5.25 8.4375 C5.07597656 10.05591797 5.07597656 10.05591797 4.8984375 11.70703125 C4.65975187 13.67113082 4.42095561 15.63521735 4.18066406 17.59912109 C2.89883103 28.29749679 2.25074286 38.84314604 2.25 49.625 C2.2492749 50.76984863 2.2485498 51.91469727 2.24780273 53.09423828 C2.03394435 58.46722786 2.03394435 58.46722786 3.4375 63.5 C4.0975 63.5 4.7575 63.5 5.4375 63.5 C8.28378662 57.48117255 10.8994495 51.64058194 12.56640625 45.1796875 C13.4375 43.5 13.4375 43.5 15.46484375 42.6953125 C16.11582031 42.63085938 16.76679688 42.56640625 17.4375 42.5 C17.7675 42.83 18.0975 43.16 18.4375 43.5 C17.99993858 52.68878977 15.29478108 61.26453514 9.4375 68.5 C5.99078289 71.48715483 4.34075716 72.48469056 -0.25 72.5625 C-3.5625 71.5 -3.5625 71.5 -5.5 69.125 C-6.5625 66.5 -6.5625 66.5 -6.5625 63.5 C-7.2225 63.5 -7.8825 63.5 -8.5625 63.5 C-8.93375 64.3971875 -8.93375 64.3971875 -9.3125 65.3125 C-10.81084688 67.93460704 -11.93169648 69.00684125 -14.5625 70.5 C-18.36029313 71.46671098 -20.60008143 71.90287289 -24.25 70.375 C-28.00873798 67.32737461 -30.59971594 63.91626414 -32.5625 59.5 C-33.305 60.44875 -34.0475 61.3975 -34.8125 62.375 C-37.62839087 65.72875767 -39.70145149 67.17431651 -44.0625 67.9375 C-46.5625 67.5 -46.5625 67.5 -48.75 65.625 C-51.18951564 61.41893855 -51.85863932 57.26958225 -52.5625 52.5 C-54.02843823 56.80985841 -55.4824339 61.10881218 -56.6875 65.5 C-57.5625 68.5 -57.5625 68.5 -58.5625 69.5 C-61.23308851 69.64115161 -63.88682238 69.54247107 -66.5625 69.5 C-67.2225 67.19 -67.8825 64.88 -68.5625 62.5 C-69.14 63.428125 -69.7175 64.35625 -70.3125 65.3125 C-73.65340909 70.04545455 -73.65340909 70.04545455 -76.5625 71.5 C-80.06471385 71.42703721 -81.96815816 70.92924689 -84.8125 68.875 C-90.68887064 60.89992556 -89.01992189 49.60339507 -88.1875 40.25 C-87.5625 36.5 -87.5625 36.5 -85.5625 34.5 C-80.30290683 33.94046881 -80.30290683 33.94046881 -77.8515625 35.79296875 C-76.5625 37.5 -76.5625 37.5 -76.875 41.125 C-76.99359375 41.89972656 -77.1121875 42.67445312 -77.234375 43.47265625 C-77.67201692 47.51042396 -77.64980994 51.50460381 -77.625 55.5625 C-77.62089111 56.3373877 -77.61678223 57.11227539 -77.61254883 57.91064453 C-77.5998616 59.77379451 -77.58175126 61.63690628 -77.5625 63.5 C-70.70805708 57.7246822 -69.05198053 46.51023496 -68.21484375 38.05859375 C-67.3882899 34.81672085 -66.21423674 33.50427499 -63.5625 31.5 C-59.8125 31.75 -59.8125 31.75 -56.5625 32.5 C-55.17633954 36.79709744 -55.96601449 39.99136578 -57.08984375 44.21875 C-57.60398685 46.70023407 -57.63813954 48.97274936 -57.5625 51.5 C-57.24796875 50.81292969 -56.9334375 50.12585938 -56.609375 49.41796875 C-56.18140625 48.51691406 -55.7534375 47.61585937 -55.3125 46.6875 C-54.89484375 45.79417969 -54.4771875 44.90085938 -54.046875 43.98046875 C-52.46889921 41.34358815 -51.19802983 40.04881811 -48.5625 38.5 C-45.375 38.25 -45.375 38.25 -42.5625 38.5 C-41.5625 39.5 -41.5625 39.5 -41.44897461 41.35766602 C-41.45421143 42.14842529 -41.45944824 42.93918457 -41.46484375 43.75390625 C-41.46806641 44.60791016 -41.47128906 45.46191406 -41.47460938 46.34179688 C-41.48717773 47.68854492 -41.48717773 47.68854492 -41.5 49.0625 C-41.50451172 49.96419922 -41.50902344 50.86589844 -41.51367188 51.79492188 C-41.52549775 54.03001314 -41.5419778 56.26497437 -41.5625 58.5 C-37.00122562 56.97957521 -35.73014062 53.64288711 -33.5625 49.5 C-32.708058 47.44615493 -31.87541506 45.3831327 -31.0625 43.3125 C-28.56553111 37.08578198 -26.14679553 34.22286368 -20.5625 30.5 C-18.625 30.26953125 -18.625 30.26953125 -16.5625 30.3125 C-15.881875 30.31894531 -15.20125 30.32539062 -14.5 30.33203125 C-12.5625 30.5 -12.5625 30.5 -9.5625 31.5 C-9.5625 32.16 -9.5625 32.82 -9.5625 33.5 C-8.9025 33.5 -8.2425 33.5 -7.5625 33.5 C-7.57410156 32.56800781 -7.58570313 31.63601562 -7.59765625 30.67578125 C-7.64322101 24.23813098 -7.62928351 17.80644191 -7.3125 11.375 C-7.26609375 10.36179687 -7.2196875 9.34859375 -7.171875 8.3046875 C-6.25420221 4.08103964 -4.39585065 0.85772696 0 0 Z " fill="#181818" transform="translate(200.5625,47.5)"/>
<path d="M0 0 C1.22332031 -0.02900391 2.44664063 -0.05800781 3.70703125 -0.08789062 C11.71796341 -0.14418366 17.31449132 0.43729252 23.60205078 5.7800293 C24.23216064 6.53860229 24.23216064 6.53860229 24.875 7.3125 C24.5625 10 24.5625 10 23.875 12.3125 C15.55271833 15.35723719 7.79830629 15.45205703 -0.96484375 15.41015625 C-2.08693741 15.4087413 -3.20903107 15.40732635 -4.36512756 15.40586853 C-7.93094608 15.400294 -11.49670062 15.38774616 -15.0625 15.375 C-17.4876293 15.36998171 -19.91275959 15.36541938 -22.33789062 15.36132812 C-28.26694872 15.35033291 -34.19596979 15.3336202 -40.125 15.3125 C-39.9820752 16.417146 -39.83915039 17.52179199 -39.69189453 18.65991211 C-38.67254137 26.75944099 -37.82056669 34.69698206 -38 42.875 C-38.00902344 43.70451172 -38.01804688 44.53402344 -38.02734375 45.38867188 C-38.05017318 47.36341759 -38.08598698 49.33800771 -38.125 51.3125 C-37.16980469 51.0959375 -36.21460938 50.879375 -35.23046875 50.65625 C-15.61255128 46.35838567 -15.61255128 46.35838567 -10.1171875 49.4375 C-8.4375 50.8125 -8.4375 50.8125 -6.125 53.3125 C-6.5 55.75 -6.5 55.75 -7.125 58.3125 C-9.97035725 59.73517862 -12.48718552 59.53221869 -15.6640625 59.62890625 C-16.96601562 59.67080078 -18.26796875 59.71269531 -19.609375 59.75585938 C-20.98958045 59.79567299 -22.36978883 59.83538522 -23.75 59.875 C-25.13803415 59.91819407 -26.52605528 59.96180865 -27.9140625 60.00585938 C-31.31760256 60.11222 -34.72121778 60.21424714 -38.125 60.3125 C-38.10928955 61.55169189 -38.10928955 61.55169189 -38.09326172 62.81591797 C-38.05884827 65.92837462 -38.03394162 69.04073317 -38.01513672 72.15332031 C-38.00032409 74.14394637 -37.97489008 76.13448437 -37.94921875 78.125 C-37.91270056 85.35560192 -38.01429627 92.3396048 -40.125 99.3125 C-41.125 100.3125 -41.125 100.3125 -43.4375 100.6875 C-46.125 100.3125 -46.125 100.3125 -48.375 98 C-51.2260531 93.62159702 -51.24360905 90.37171831 -51.22265625 85.23828125 C-51.2212413 84.5544487 -51.21982635 83.87061615 -51.21836853 83.1660614 C-51.21277876 80.98566278 -51.20022822 78.80536749 -51.1875 76.625 C-51.18248367 75.14518378 -51.177921 73.66536594 -51.17382812 72.18554688 C-51.16281271 68.56116443 -51.14555512 64.9368423 -51.125 61.3125 C-52.115 61.8075 -52.115 61.8075 -53.125 62.3125 C-54.83202735 62.38246014 -56.54168003 62.39690154 -58.25 62.375 C-59.16007812 62.36597656 -60.07015625 62.35695312 -61.0078125 62.34765625 C-61.70648438 62.33605469 -62.40515625 62.32445312 -63.125 62.3125 C-63.125 61.6525 -63.125 60.9925 -63.125 60.3125 C-58.82145399 56.84867028 -55.53785052 55.93681213 -50.125 55.3125 C-50.14071045 53.96671875 -50.14071045 53.96671875 -50.15673828 52.59375 C-50.19103726 49.23158138 -50.21600375 45.86960156 -50.23486328 42.50732422 C-50.24485586 41.05840094 -50.25845453 39.60949749 -50.27587891 38.16064453 C-50.44950751 23.34093217 -50.44950751 23.34093217 -48.125 16.3125 C-49.115 16.6425 -50.105 16.9725 -51.125 17.3125 C-52.50536843 17.40788361 -53.88979633 17.4505429 -55.2734375 17.45776367 C-56.10439941 17.46414352 -56.93536133 17.47052338 -57.79150391 17.47709656 C-58.68530762 17.47820938 -59.57911133 17.4793222 -60.5 17.48046875 C-61.42087402 17.48379715 -62.34174805 17.48712555 -63.29052734 17.49055481 C-65.23729961 17.4956168 -67.18408054 17.49796336 -69.13085938 17.49780273 C-72.11342587 17.49999151 -75.09562385 17.51816114 -78.078125 17.53710938 C-79.96874873 17.54004295 -81.85937423 17.54202799 -83.75 17.54296875 C-84.64380371 17.55015427 -85.53760742 17.55733978 -86.45849609 17.56474304 C-87.70493896 17.5601281 -87.70493896 17.5601281 -88.9765625 17.55541992 C-90.07218506 17.55755745 -90.07218506 17.55755745 -91.18994141 17.55973816 C-93.125 17.3125 -93.125 17.3125 -96.125 15.3125 C-95.84341197 12.59048239 -95.38270668 11.53409491 -93.28515625 9.73046875 C-88.54335011 7.60281037 -83.89742386 7.67676515 -78.75 7.4375 C-64.0902315 6.56937276 -49.61334595 4.69335178 -35.06332397 2.75074768 C-23.32382237 1.18618837 -11.86466341 0.09436371 0 0 Z " fill="#181818" transform="translate(115.125,27.6875)"/>
<path d="M0 0 C3.39456643 3.0098489 6.6648129 6.60277581 7.30859375 11.20703125 C7.64903471 18.08806516 7.64903471 18.08806516 5.765625 20.734375 C0.97371041 24.76717441 -2.94419328 25.1142605 -9 25 C-8.88597936 27.27141109 -8.75841495 29.54214552 -8.625 31.8125 C-8.55539062 33.07707031 -8.48578125 34.34164062 -8.4140625 35.64453125 C-8.23897061 39.12755234 -8.23897061 39.12755234 -6 42 C-2.84856357 42 -0.70295329 41.58815331 1.74609375 39.5390625 C8.55104632 32.11272227 13.26582363 24.09492512 14 14 C16.70823652 11.29176348 18.9431464 11.26680456 22.6875 10.5625 C28.51104578 9.41204685 28.51104578 9.41204685 34 7.25 C37.5470603 5.77205821 39.36900912 5.81781692 43 7 C45 10 45 10 45.125 12.5 C44 15 44 15 40.375 16.6875 C38.92392165 17.1484924 37.46512962 17.58582908 36 18 C35.31164062 18.20625 34.62328125 18.4125 33.9140625 18.625 C32.2821376 19.10458609 30.64178784 19.55534913 29 20 C30.01320313 20.45439453 30.01320313 20.45439453 31.046875 20.91796875 C36.95942317 23.69481579 40.98907646 25.97815292 44 32 C44.37563975 36.97722669 44.25619168 40.11357767 41 44 C35.96910396 47.87798237 31.86193441 48.67745388 25.53125 48.46875 C21.82004689 47.78149016 20.18072963 45.9803305 18 43 C17.67 42.67 17.34 42.34 17 42 C16.63128262 38.96563728 16.6066602 36.03199433 17 33 C19.1258601 30.40172655 20.32345686 30.08054085 23.625 29.6875 C26 30 26 30 28 32 C28.4140625 34.1640625 28.4140625 34.1640625 28.625 36.625 C28.69976562 37.44226563 28.77453125 38.25953125 28.8515625 39.1015625 C28.90054688 39.72804687 28.94953125 40.35453125 29 41 C30.32 41 31.64 41 33 41 C33.55622277 37.18590099 33.72361541 35.110341 31.58203125 31.82421875 C28.69620722 28.45844957 26.19287457 25.65199258 22 24 C21.01 24 20.02 24 19 24 C18.79246094 24.60585937 18.58492188 25.21171875 18.37109375 25.8359375 C15.06719075 34.82144774 10.69365548 43.36338374 2 48 C1.38125 48.4125 0.7625 48.825 0.125 49.25 C-3.28270038 50.45271778 -6.48019955 50.64427947 -10 50 C-15.40793529 46.73483152 -17.35543718 43.08481645 -19 37 C-19.43979663 33.90350717 -19.52448518 30.87488078 -19.5 27.75 C-19.49572998 26.92024658 -19.49145996 26.09049316 -19.48706055 25.2355957 C-19.21620608 15.38434129 -16.01676282 7.01676282 -9 0 C-5.69035313 -1.65482343 -3.5180408 -0.93814421 0 0 Z " fill="#181818" transform="translate(366,73)"/>
<path d="M0 0 C3.0625 0.3125 3.0625 0.3125 4.9375 1.4375 C6.5307099 4.09284983 6.26464032 6.28039518 6.0625 9.3125 C7.485625 9.250625 7.485625 9.250625 8.9375 9.1875 C12.0625 9.3125 12.0625 9.3125 14.0625 11.3125 C14.0625 12.3025 14.0625 13.2925 14.0625 14.3125 C12.0625 15.3125 12.0625 15.3125 4.0625 15.3125 C4.0625 27.1925 4.0625 39.0725 4.0625 51.3125 C4.7225 51.6425 5.3825 51.9725 6.0625 52.3125 C6.32289063 51.65765625 6.58328125 51.0028125 6.8515625 50.328125 C7.45097656 48.83539063 7.45097656 48.83539063 8.0625 47.3125 C8.31225586 46.68666016 8.56201172 46.06082031 8.81933594 45.41601562 C9.67592238 43.29119695 10.55527787 41.17679097 11.4375 39.0625 C11.72882812 38.3303125 12.02015625 37.598125 12.3203125 36.84375 C13.2109375 34.734375 13.2109375 34.734375 15.0625 31.3125 C17.17822266 30.59863281 17.17822266 30.59863281 19.0625 30.3125 C20.67354632 35.14563896 19.1760104 38.72858228 17.375 43.25 C17.11783203 43.94029297 16.86066406 44.63058594 16.59570312 45.34179688 C14.3143209 51.25545351 11.29371665 57.53439909 6.0625 61.3125 C2.59328557 61.9387882 -0.6595793 62.03665506 -3.8125 60.25 C-6.80897185 55.0894096 -7.18674687 49.61247206 -7.16796875 43.76953125 C-7.16728142 42.73320808 -7.16728142 42.73320808 -7.1665802 41.6759491 C-7.16358102 40.22804019 -7.15576559 38.78013383 -7.14331055 37.33227539 C-7.12496258 35.120489 -7.1228019 32.90912051 -7.12304688 30.69726562 C-7.08219656 18.94527018 -7.08219656 18.94527018 -5.9375 15.3125 C-8.2475 15.3125 -10.5575 15.3125 -12.9375 15.3125 C-13.5 13.375 -13.5 13.375 -13.9375 11.3125 C-12.9375 10.3125 -12.9375 10.3125 -11.08984375 10.21484375 C-9.0390625 10.24739583 -6.98828125 10.27994792 -4.9375 10.3125 C-4.97875 9.03375 -5.02 7.755 -5.0625 6.4375 C-5.1328125 4.2578125 -5.1328125 4.2578125 -4.9375 2.3125 C-2.9375 0.3125 -2.9375 0.3125 0 0 Z " fill="#171717" transform="translate(623.9375,59.6875)"/>
<path d="M0 0 C4.84037606 2.37452411 7.79259516 5.0757892 10 10 C10.82634643 16.94805572 11.13989419 24.22486467 7.39453125 30.37890625 C3.79504252 34.56318586 -0.14301457 36.70679177 -5.5625 37.5625 C-9.63532761 36.8960373 -12.93750398 35.83508295 -16 33 C-20.13077152 26.35988129 -19.86979134 19.5842553 -19 12 C-17.82850572 8.774775 -16.3233511 6.50355562 -14 4 C-13.2575 3.175 -12.515 2.35 -11.75 1.5 C-7.78848014 -0.66082901 -4.41393776 -0.76425071 0 0 Z " fill="#171717" transform="translate(568,78)"/>
<path d="M0 0 C2.81902966 1.17459569 3.85610884 2.22715608 5.25 4.9375 C5.046875 6.97265625 5.046875 6.97265625 4.25 8.9375 C1.53981031 10.15241262 -0.92838594 11.09500393 -3.75 11.9375 C-4.43835938 12.14503906 -5.12671875 12.35257813 -5.8359375 12.56640625 C-7.46842459 13.04282595 -9.10855038 13.49294073 -10.75 13.9375 C-9.55375 14.453125 -8.3575 14.96875 -7.125 15.5 C-2.60255394 17.80950537 0.86834012 20.36471303 3.25 24.9375 C4.01081983 28.44055535 4.0502778 31.43998963 3.25 34.9375 C0.69134687 38.3490375 -1.84610849 40.31967109 -5.75 41.9375 C-10.8533509 42.59158074 -15.29014765 42.77170134 -19.8125 40.1875 C-22.56023529 36.9965816 -23.59948191 35.14164476 -24.125 30.9375 C-23.75 27.9375 -23.75 27.9375 -22.125 25.5625 C-19.12639795 23.51082492 -17.31299065 23.54161215 -13.75 23.9375 C-12.09623289 25.59126711 -12.11528792 27.74698364 -11.6875 30 C-11.51089844 30.91910156 -11.33429687 31.83820313 -11.15234375 32.78515625 C-11.01957031 33.49542969 -10.88679687 34.20570312 -10.75 34.9375 C-9.43 35.2675 -8.11 35.5975 -6.75 35.9375 C-6.16432541 31.2521033 -6.52717678 28.67233723 -9.25 24.75 C-12.51735136 20.74884633 -16.04541985 18.8792261 -20.75 16.9375 C-23.75 15.5625 -23.75 15.5625 -25.75 13.9375 C-26.375 10.9375 -26.375 10.9375 -25.75 7.9375 C-22.1196505 4.43233497 -17.2628384 4.23437781 -12.46875 3.48046875 C-10.01064692 2.98955449 -8.11564151 2.33592494 -5.875 1.25 C-2.75 -0.0625 -2.75 -0.0625 0 0 Z " fill="#181818" transform="translate(607.75,79.0625)"/>
<path d="M0 0 C0.804375 0.12375 1.60875 0.2475 2.4375 0.375 C5.85596415 5.50269622 5.06042054 11.40004792 4.4375 17.375 C3.30732019 21.09245093 2.02541152 24.44203361 -0.5625 27.375 C-3.23828125 28.13671875 -3.23828125 28.13671875 -5.5625 28.375 C-9.32847998 23.66752503 -9.184983 19.11844317 -8.5625 13.375 C-5.9667848 0.87318802 -5.9667848 0.87318802 0 0 Z " fill="#F7F7F7" transform="translate(186.5625,84.625)"/>
<path d="M0 0 C0.77085938 -0.01417969 1.54171875 -0.02835938 2.3359375 -0.04296875 C4.90289176 0.21547886 6.47041927 0.776368 8.625 2.1875 C9.6875 5 9.6875 5 9.625 8.1875 C7.04227373 11.32865357 4.8015794 13.92665257 0.63671875 14.42578125 C-3.42684157 14.555542 -5.80683213 14.50057209 -9.4375 12.5 C-11.375 10.1875 -11.375 10.1875 -12 7.6875 C-11.12343158 4.18122631 -9.32043001 3.15112 -6.375 1.1875 C-4.04904054 0.02452027 -2.58776769 0.02149309 0 0 Z " fill="#1A1A1A" transform="translate(120.375,61.8125)"/>
<path d="M0 0 C2.85231484 0.95077161 3.83323272 1.68314218 5.25 4.375 C6.51165495 10.47299892 7.46805975 17.22615959 4.48046875 22.87109375 C3.99191406 23.57363281 3.50335937 24.27617188 3 25 C1.125 24.6875 1.125 24.6875 -1 24 C-4.60514569 18.59228147 -4.61564376 12.35469575 -4 6 C-2.83567931 3.51949071 -1.90574048 1.90574048 0 0 Z " fill="#F6F6F6" transform="translate(563,83)"/>
<path d="M0 0 C4.06809929 0.52537408 6.17603456 1.61400461 9.1875 4.375 C9.86167969 4.98085937 10.53585937 5.58671875 11.23046875 6.2109375 C14.10482582 9.11702037 14.98422724 10.53470355 15.125 14.6875 C15.08375 15.780625 15.0425 16.87375 15 18 C13.34385343 18.38218767 11.67542976 18.71395102 10 19 C8.07426764 17.07426764 8.5128147 13.64462302 8.28125 11.03125 C8.20934163 9.00819407 8.20934163 9.00819407 7 8 C2.6590631 8.14158662 2.6590631 8.14158662 -1 10 C-1.36760731 12.32817964 -1.70241581 14.6618385 -2 17 C-2.66 15.68 -3.32 14.36 -4 13 C-4.99 13.495 -4.99 13.495 -6 14 C-4.16508812 9.25981099 -2.08058541 4.63586749 0 0 Z " fill="#F2F2F2" transform="translate(385,96)"/>
<path d="M0 0 C3 0.125 3 0.125 4 1.125 C4.125 4.125 4.125 4.125 4 7.125 C3 8.125 3 8.125 -0.0625 8.1875 C-1.031875 8.166875 -2.00125 8.14625 -3 8.125 C-3.38063221 5.7989143 -3.71269945 3.46444736 -4 1.125 C-3 0.125 -3 0.125 0 0 Z " fill="#363636" transform="translate(103,146.875)"/>
<path d="M0 0 C2.5 0.125 2.5 0.125 3.5 1.125 C3.625 4.125 3.625 4.125 3.5 7.125 C2.5 8.125 2.5 8.125 0.0625 8.3125 C-2.5 8.125 -2.5 8.125 -4.5 6.125 C-3.77607362 0.18880368 -3.77607362 0.18880368 0 0 Z " fill="#292929" transform="translate(501.5,146.875)"/>
<path d="M0 0 C2.5625 0.1875 2.5625 0.1875 4.5625 2.1875 C4.00694444 6.74305556 4.00694444 6.74305556 2.5625 8.1875 C0.0625 8.3125 0.0625 8.3125 -2.4375 8.1875 C-3.4375 7.1875 -3.4375 7.1875 -3.5625 4.1875 C-3.39891479 0.26145498 -3.39891479 0.26145498 0 0 Z " fill="#272727" transform="translate(269.4375,146.8125)"/>
<path d="M0 0 C1.98 0 3.96 0 6 0 C6.38063221 2.3260857 6.71269945 4.66055264 7 7 C6 8 6 8 2.9375 8.0625 C1.968125 8.041875 0.99875 8.02125 0 8 C0 5.36 0 2.72 0 0 Z " fill="#555555" transform="translate(451,147)"/>
<path d="M0 0 C2.375 -0.125 2.375 -0.125 5 0 C5.66 0.66 6.32 1.32 7 2 C6.44444444 6.55555556 6.44444444 6.55555556 5 8 C3.33382885 8.04063832 1.66611905 8.042721 0 8 C0 5.36 0 2.72 0 0 Z " fill="#323232" transform="translate(207,147)"/>
<path d="M0 0 C2.32528287 2.32528287 2.29511025 2.84665898 2.3125 6 C2.32925781 6.70125 2.34601563 7.4025 2.36328125 8.125 C2.18345703 9.053125 2.18345703 9.053125 2 10 C-1 12 -1 12 -4 12 C-3.5317879 7.22423661 -2.75668002 3.95523655 0 0 Z " fill="#EDEDED" transform="translate(363,79)"/>
<path d="M0 0 C0.99 0.99 1.98 1.98 3 3 C3.33 2.01 3.66 1.02 4 0 C7 1 7 1 8 3 C8.33 2.01 8.66 1.02 9 0 C9.66 0 10.32 0 11 0 C10.34 2.64 9.68 5.28 9 8 C8.34 8 7.68 8 7 8 C6.34 7.01 5.68 6.02 5 5 C4.01 5.99 3.02 6.98 2 8 C0.74335022 5.09399739 0 3.20395416 0 0 Z " fill="#313131" transform="translate(416,147)"/>
<path d="M0 0 C1.65 0 3.3 0 5 0 C5.66666667 2.66666667 6.33333333 5.33333333 7 8 C5.68 7.34 4.36 6.68 3 6 C2.67 6.66 2.34 7.32 2 8 C1.34 8 0.68 8 0 8 C0 5.36 0 2.72 0 0 Z " fill="#555555" transform="translate(133,147)"/>
<path d="M0 0 C1.65 0 3.3 0 5 0 C5.98120464 3.05263664 5.98120464 4.94736336 5 8 C4.34 7.34 3.68 6.68 3 6 C2.67 6.66 2.34 7.32 2 8 C1.34 8 0.68 8 0 8 C0 5.36 0 2.72 0 0 Z " fill="#505050" transform="translate(326,147)"/>
<path d="M0 0 C0.66 0 1.32 0 2 0 C2.66 0.99 3.32 1.98 4 3 C4.33 2.01 4.66 1.02 5 0 C5.66 0 6.32 0 7 0 C7 2.64 7 5.28 7 8 C6.34 8 5.68 8 5 8 C4.34 7.01 3.68 6.02 3 5 C2.67 5.99 2.34 6.98 2 8 C1.34 8 0.68 8 0 8 C0 5.36 0 2.72 0 0 Z " fill="#3B3B3B" transform="translate(557,147)"/>
<path d="M0 0 C1.4540625 0.0309375 1.4540625 0.0309375 2.9375 0.0625 C0.9575 1.0525 0.9575 1.0525 -1.0625 2.0625 C-1.0625 3.3825 -1.0625 4.7025 -1.0625 6.0625 C-0.7325 5.7325 -0.4025 5.4025 -0.0625 5.0625 C1.26344105 4.70087971 2.59688457 4.36521961 3.9375 4.0625 C3.2775 5.3825 2.6175 6.7025 1.9375 8.0625 C0.27138095 8.105221 -1.39632885 8.10313832 -3.0625 8.0625 C-4.0625 7.0625 -4.0625 7.0625 -4.1875 4.0625 C-4.02164894 0.08207447 -4.02164894 0.08207447 0 0 Z " fill="#3C3C3C" transform="translate(578.0625,146.9375)"/>
<path d="M0 0 C0.66 0 1.32 0 2 0 C2 0.99 2 1.98 2 3 C3.32 3 4.64 3 6 3 C6.33 2.01 6.66 1.02 7 0 C7 2.64 7 5.28 7 8 C6.67 7.01 6.34 6.02 6 5 C4.68 5 3.36 5 2 5 C2 5.99 2 6.98 2 8 C1.34 8 0.68 8 0 8 C0 5.36 0 2.72 0 0 Z " fill="#383838" transform="translate(480,147)"/>
<path d="M0 0 C1.65 0 3.3 0 5 0 C5.33 1.32 5.66 2.64 6 4 C4.35 4.33 2.7 4.66 1 5 C0.67 5.99 0.34 6.98 0 8 C0 5.36 0 2.72 0 0 Z " fill="#555555" transform="translate(296,147)"/>
<path d="M0 0 C1.98 0.495 1.98 0.495 4 1 C3.67 2.65 3.34 4.3 3 6 C1.68 5.67 0.36 5.34 -1 5 C-0.67 3.35 -0.34 1.7 0 0 Z " fill="#E5E5E5" transform="translate(500,148)"/>
<path d="M0 0 C1.98 0.495 1.98 0.495 4 1 C3.67 2.65 3.34 4.3 3 6 C1.68 5.67 0.36 5.34 -1 5 C-0.67 3.35 -0.34 1.7 0 0 Z " fill="#E6E6E6" transform="translate(268,148)"/>
<path d="M0 0 C1.98 0.495 1.98 0.495 4 1 C3.67 2.65 3.34 4.3 3 6 C1.68 5.67 0.36 5.34 -1 5 C-0.67 3.35 -0.34 1.7 0 0 Z " fill="#DDDDDD" transform="translate(102,148)"/>
<path d="M0 0 C1.4540625 0.0309375 1.4540625 0.0309375 2.9375 0.0625 C0.9575 1.0525 0.9575 1.0525 -1.0625 2.0625 C-1.0625 3.3825 -1.0625 4.7025 -1.0625 6.0625 C-0.0725 6.0625 0.9175 6.0625 1.9375 6.0625 C1.9375 6.7225 1.9375 7.3825 1.9375 8.0625 C0.2875 8.0625 -1.3625 8.0625 -3.0625 8.0625 C-3.44313221 5.7364143 -3.77519945 3.40194736 -4.0625 1.0625 C-3.0625 0.0625 -3.0625 0.0625 0 0 Z " fill="#3B3B3B" transform="translate(376.0625,146.9375)"/>
<path d="M0 0 C1.98 0.495 1.98 0.495 4 1 C4 4 4 4 3 6 C1.68 5.67 0.36 5.34 -1 5 C-0.67 3.35 -0.34 1.7 0 0 Z " fill="#DCDCDC" transform="translate(164,148)"/>
<path d="M0 0 C1.65 0 3.3 0 5 0 C4.01 0.33 3.02 0.66 2 1 C2 1.66 2 2.32 2 3 C2.99 3 3.98 3 5 3 C5 3.66 5 4.32 5 5 C4.01 5 3.02 5 2 5 C2 5.99 2 6.98 2 8 C1.34 8 0.68 8 0 8 C0 5.36 0 2.72 0 0 Z " fill="#404040" transform="translate(342,147)"/>
<path d="M0 0 C1.65 0 3.3 0 5 0 C4.01 0.33 3.02 0.66 2 1 C2 1.66 2 2.32 2 3 C2.66 3.33 3.32 3.66 4 4 C3.34 4 2.68 4 2 4 C2 4.99 2 5.98 2 7 C3.32 7.33 4.64 7.66 6 8 C4.02 8 2.04 8 0 8 C0 5.36 0 2.72 0 0 Z " fill="#373737" transform="translate(223,147)"/>
<path d="M0 0 C1.65 0 3.3 0 5 0 C4.01 0.33 3.02 0.66 2 1 C2 1.66 2 2.32 2 3 C2.66 3.33 3.32 3.66 4 4 C3.34 4 2.68 4 2 4 C2 4.99 2 5.98 2 7 C2.99 7.33 3.98 7.66 5 8 C3.35 8 1.7 8 0 8 C0 5.36 0 2.72 0 0 Z " fill="#323232" transform="translate(311,147)"/>
<path d="M0 0 C1.65 0 3.3 0 5 0 C4.01 0.33 3.02 0.66 2 1 C2 1.66 2 2.32 2 3 C2.66 3.33 3.32 3.66 4 4 C3.34 4 2.68 4 2 4 C2 4.99 2 5.98 2 7 C2.99 7.33 3.98 7.66 5 8 C3.35 8 1.7 8 0 8 C0 5.36 0 2.72 0 0 Z " fill="#292929" transform="translate(357,147)"/>
<path d="M0 0 C0.99 0 1.98 0 3 0 C3 0.66 3 1.32 3 2 C3.66 2.33 4.32 2.66 5 3 C4.01 3.99 3.02 4.98 2 6 C1.01 5.67 0.02 5.34 -1 5 C-0.67 3.35 -0.34 1.7 0 0 Z " fill="#E8E8E8" transform="translate(577,148)"/>
<path d="M0 0 C1.98 0 3.96 0 6 0 C6 0.99 6 1.98 6 3 C4.68 3 3.36 3 2 3 C1.67 4.65 1.34 6.3 1 8 C0.67 8 0.34 8 0 8 C0 5.36 0 2.72 0 0 Z " fill="#858585" transform="translate(451,147)"/>
<path d="M0 0 C1.32 0.33 2.64 0.66 4 1 C4 2.32 4 3.64 4 5 C2.68 5 1.36 5 0 5 C0 3.35 0 1.7 0 0 Z " fill="#DDDDDD" transform="translate(208,148)"/>
</svg>
